<mxfile host="app.diagrams.net" modified="2022-05-07T11:13:50.486Z" agent="5.0 (Windows NT 10.0; Win64; x64) AppleWebKit/537.36 (KHTML, like Gecko) Chrome/101.0.4951.54 Safari/537.36" etag="cJbMMGtZJYfPh-vRh51R" version="18.0.1" type="github">
  <diagram id="JFRZ8dj194rRN1XpNp-m" name="Page-1">
    <mxGraphModel dx="992" dy="667" grid="1" gridSize="10" guides="1" tooltips="1" connect="1" arrows="1" fold="1" page="1" pageScale="1" pageWidth="850" pageHeight="1100" math="0" shadow="0">
      <root>
        <mxCell id="0" />
        <mxCell id="1" parent="0" />
        <mxCell id="BhaXQfzk9UI3LimtLr83-48" style="edgeStyle=none;rounded=0;orthogonalLoop=1;jettySize=auto;html=1;" edge="1" parent="1" source="BhaXQfzk9UI3LimtLr83-1" target="BhaXQfzk9UI3LimtLr83-46">
          <mxGeometry relative="1" as="geometry" />
        </mxCell>
        <mxCell id="BhaXQfzk9UI3LimtLr83-49" style="edgeStyle=none;rounded=0;orthogonalLoop=1;jettySize=auto;html=1;" edge="1" parent="1" source="BhaXQfzk9UI3LimtLr83-1" target="BhaXQfzk9UI3LimtLr83-3">
          <mxGeometry relative="1" as="geometry" />
        </mxCell>
        <mxCell id="BhaXQfzk9UI3LimtLr83-50" style="edgeStyle=none;rounded=0;orthogonalLoop=1;jettySize=auto;html=1;" edge="1" parent="1" source="BhaXQfzk9UI3LimtLr83-1" target="BhaXQfzk9UI3LimtLr83-38">
          <mxGeometry relative="1" as="geometry" />
        </mxCell>
        <mxCell id="BhaXQfzk9UI3LimtLr83-51" style="edgeStyle=none;rounded=0;orthogonalLoop=1;jettySize=auto;html=1;" edge="1" parent="1" source="BhaXQfzk9UI3LimtLr83-1" target="BhaXQfzk9UI3LimtLr83-13">
          <mxGeometry relative="1" as="geometry" />
        </mxCell>
        <mxCell id="BhaXQfzk9UI3LimtLr83-1" value="User" style="shape=umlActor;verticalLabelPosition=bottom;verticalAlign=top;html=1;outlineConnect=0;" vertex="1" parent="1">
          <mxGeometry x="275" y="380" width="30" height="60" as="geometry" />
        </mxCell>
        <mxCell id="BhaXQfzk9UI3LimtLr83-3" value="Xem bài viết" style="ellipse;whiteSpace=wrap;html=1;" vertex="1" parent="1">
          <mxGeometry x="165" y="240" width="120" height="80" as="geometry" />
        </mxCell>
        <mxCell id="BhaXQfzk9UI3LimtLr83-7" style="rounded=0;orthogonalLoop=1;jettySize=auto;html=1;dashed=1;" edge="1" parent="1" source="BhaXQfzk9UI3LimtLr83-4" target="BhaXQfzk9UI3LimtLr83-3">
          <mxGeometry relative="1" as="geometry" />
        </mxCell>
        <mxCell id="BhaXQfzk9UI3LimtLr83-9" value="&amp;lt;&amp;lt;extend&amp;gt;&amp;gt;" style="edgeLabel;html=1;align=center;verticalAlign=middle;resizable=0;points=[];" vertex="1" connectable="0" parent="BhaXQfzk9UI3LimtLr83-7">
          <mxGeometry x="-0.2218" y="-4" relative="1" as="geometry">
            <mxPoint as="offset" />
          </mxGeometry>
        </mxCell>
        <mxCell id="BhaXQfzk9UI3LimtLr83-4" value="Thêm, sửa và xóa&lt;br&gt;&amp;nbsp;bài viết" style="ellipse;whiteSpace=wrap;html=1;" vertex="1" parent="1">
          <mxGeometry x="285" y="100" width="120" height="80" as="geometry" />
        </mxCell>
        <mxCell id="BhaXQfzk9UI3LimtLr83-8" style="rounded=0;orthogonalLoop=1;jettySize=auto;html=1;dashed=1;" edge="1" parent="1" source="BhaXQfzk9UI3LimtLr83-5" target="BhaXQfzk9UI3LimtLr83-3">
          <mxGeometry relative="1" as="geometry" />
        </mxCell>
        <mxCell id="BhaXQfzk9UI3LimtLr83-12" value="&amp;lt;&amp;lt;extend&amp;gt;&amp;gt;" style="edgeLabel;html=1;align=center;verticalAlign=middle;resizable=0;points=[];" vertex="1" connectable="0" parent="BhaXQfzk9UI3LimtLr83-8">
          <mxGeometry x="0.2708" y="-2" relative="1" as="geometry">
            <mxPoint as="offset" />
          </mxGeometry>
        </mxCell>
        <mxCell id="BhaXQfzk9UI3LimtLr83-5" value="Báo cáo bài viết" style="ellipse;whiteSpace=wrap;html=1;" vertex="1" parent="1">
          <mxGeometry x="465" y="140" width="120" height="80" as="geometry" />
        </mxCell>
        <mxCell id="BhaXQfzk9UI3LimtLr83-13" value="Xem bài đấu giá" style="ellipse;whiteSpace=wrap;html=1;" vertex="1" parent="1">
          <mxGeometry x="215" y="530" width="120" height="80" as="geometry" />
        </mxCell>
        <mxCell id="BhaXQfzk9UI3LimtLr83-14" style="rounded=0;orthogonalLoop=1;jettySize=auto;html=1;dashed=1;" edge="1" source="BhaXQfzk9UI3LimtLr83-16" target="BhaXQfzk9UI3LimtLr83-13" parent="1">
          <mxGeometry relative="1" as="geometry" />
        </mxCell>
        <mxCell id="BhaXQfzk9UI3LimtLr83-15" value="&amp;lt;&amp;lt;extend&amp;gt;&amp;gt;" style="edgeLabel;html=1;align=center;verticalAlign=middle;resizable=0;points=[];" vertex="1" connectable="0" parent="BhaXQfzk9UI3LimtLr83-14">
          <mxGeometry x="-0.2218" y="-4" relative="1" as="geometry">
            <mxPoint as="offset" />
          </mxGeometry>
        </mxCell>
        <mxCell id="BhaXQfzk9UI3LimtLr83-16" value="Đấu giá" style="ellipse;whiteSpace=wrap;html=1;" vertex="1" parent="1">
          <mxGeometry x="480" y="530" width="120" height="80" as="geometry" />
        </mxCell>
        <mxCell id="BhaXQfzk9UI3LimtLr83-17" style="rounded=0;orthogonalLoop=1;jettySize=auto;html=1;dashed=1;" edge="1" source="BhaXQfzk9UI3LimtLr83-19" target="BhaXQfzk9UI3LimtLr83-13" parent="1">
          <mxGeometry relative="1" as="geometry">
            <mxPoint x="289.17110452695556" y="671.4170672844537" as="sourcePoint" />
          </mxGeometry>
        </mxCell>
        <mxCell id="BhaXQfzk9UI3LimtLr83-18" value="&amp;lt;&amp;lt;extend&amp;gt;&amp;gt;" style="edgeLabel;html=1;align=center;verticalAlign=middle;resizable=0;points=[];" vertex="1" connectable="0" parent="BhaXQfzk9UI3LimtLr83-17">
          <mxGeometry x="0.2708" y="-2" relative="1" as="geometry">
            <mxPoint as="offset" />
          </mxGeometry>
        </mxCell>
        <mxCell id="BhaXQfzk9UI3LimtLr83-19" value="Báo cáo bài &lt;br&gt;đấu giá" style="ellipse;whiteSpace=wrap;html=1;" vertex="1" parent="1">
          <mxGeometry x="250" y="650" width="120" height="80" as="geometry" />
        </mxCell>
        <mxCell id="BhaXQfzk9UI3LimtLr83-22" style="edgeStyle=none;rounded=0;orthogonalLoop=1;jettySize=auto;html=1;dashed=1;" edge="1" parent="1" source="BhaXQfzk9UI3LimtLr83-20" target="BhaXQfzk9UI3LimtLr83-3">
          <mxGeometry relative="1" as="geometry" />
        </mxCell>
        <mxCell id="BhaXQfzk9UI3LimtLr83-23" value="&amp;lt;&amp;lt;extend&amp;gt;&amp;gt;" style="edgeLabel;html=1;align=center;verticalAlign=middle;resizable=0;points=[];" vertex="1" connectable="0" parent="BhaXQfzk9UI3LimtLr83-22">
          <mxGeometry x="-0.1822" y="-1" relative="1" as="geometry">
            <mxPoint as="offset" />
          </mxGeometry>
        </mxCell>
        <mxCell id="BhaXQfzk9UI3LimtLr83-20" value="Thích, bỏ thích&lt;br&gt;&amp;nbsp;bài viết" style="ellipse;whiteSpace=wrap;html=1;" vertex="1" parent="1">
          <mxGeometry x="610" y="210" width="120" height="80" as="geometry" />
        </mxCell>
        <mxCell id="BhaXQfzk9UI3LimtLr83-21" value="Bình luận" style="ellipse;whiteSpace=wrap;html=1;" vertex="1" parent="1">
          <mxGeometry x="355" y="280" width="120" height="80" as="geometry" />
        </mxCell>
        <mxCell id="BhaXQfzk9UI3LimtLr83-24" style="edgeStyle=none;rounded=0;orthogonalLoop=1;jettySize=auto;html=1;dashed=1;" edge="1" parent="1" source="BhaXQfzk9UI3LimtLr83-21" target="BhaXQfzk9UI3LimtLr83-3">
          <mxGeometry relative="1" as="geometry">
            <mxPoint x="537.318467450709" y="271.01192894122823" as="sourcePoint" />
            <mxPoint x="442.68427100404597" y="288.99444829528056" as="targetPoint" />
          </mxGeometry>
        </mxCell>
        <mxCell id="BhaXQfzk9UI3LimtLr83-25" value="&amp;lt;&amp;lt;extend&amp;gt;&amp;gt;" style="edgeLabel;html=1;align=center;verticalAlign=middle;resizable=0;points=[];" vertex="1" connectable="0" parent="BhaXQfzk9UI3LimtLr83-24">
          <mxGeometry x="-0.1822" y="-1" relative="1" as="geometry">
            <mxPoint as="offset" />
          </mxGeometry>
        </mxCell>
        <mxCell id="BhaXQfzk9UI3LimtLr83-26" style="rounded=0;orthogonalLoop=1;jettySize=auto;html=1;dashed=1;" edge="1" source="BhaXQfzk9UI3LimtLr83-28" parent="1" target="BhaXQfzk9UI3LimtLr83-13">
          <mxGeometry relative="1" as="geometry">
            <mxPoint x="225.00311213594054" y="600.004062842052" as="targetPoint" />
          </mxGeometry>
        </mxCell>
        <mxCell id="BhaXQfzk9UI3LimtLr83-27" value="&amp;lt;&amp;lt;extend&amp;gt;&amp;gt;" style="edgeLabel;html=1;align=center;verticalAlign=middle;resizable=0;points=[];" vertex="1" connectable="0" parent="BhaXQfzk9UI3LimtLr83-26">
          <mxGeometry x="-0.2218" y="-4" relative="1" as="geometry">
            <mxPoint as="offset" />
          </mxGeometry>
        </mxCell>
        <mxCell id="BhaXQfzk9UI3LimtLr83-28" value="Chọn người&lt;br&gt;thắng cuộc" style="ellipse;whiteSpace=wrap;html=1;" vertex="1" parent="1">
          <mxGeometry x="625" y="650" width="120" height="80" as="geometry" />
        </mxCell>
        <mxCell id="BhaXQfzk9UI3LimtLr83-29" value="Thanh toán&lt;br&gt;Momo" style="ellipse;whiteSpace=wrap;html=1;" vertex="1" parent="1">
          <mxGeometry x="360" y="460" width="120" height="80" as="geometry" />
        </mxCell>
        <mxCell id="BhaXQfzk9UI3LimtLr83-30" style="rounded=0;orthogonalLoop=1;jettySize=auto;html=1;dashed=1;" edge="1" source="BhaXQfzk9UI3LimtLr83-29" parent="1" target="BhaXQfzk9UI3LimtLr83-13">
          <mxGeometry relative="1" as="geometry">
            <mxPoint x="256.74589772351567" y="479.99969092712433" as="targetPoint" />
          </mxGeometry>
        </mxCell>
        <mxCell id="BhaXQfzk9UI3LimtLr83-31" value="&amp;lt;&amp;lt;extend&amp;gt;&amp;gt;" style="edgeLabel;html=1;align=center;verticalAlign=middle;resizable=0;points=[];" vertex="1" connectable="0" parent="BhaXQfzk9UI3LimtLr83-30">
          <mxGeometry x="-0.2218" y="-4" relative="1" as="geometry">
            <mxPoint as="offset" />
          </mxGeometry>
        </mxCell>
        <mxCell id="BhaXQfzk9UI3LimtLr83-32" value="Tìm kiếm theo&lt;br&gt;hashtag" style="ellipse;whiteSpace=wrap;html=1;" vertex="1" parent="1">
          <mxGeometry x="115" y="100" width="120" height="80" as="geometry" />
        </mxCell>
        <mxCell id="BhaXQfzk9UI3LimtLr83-33" style="rounded=0;orthogonalLoop=1;jettySize=auto;html=1;dashed=1;" edge="1" source="BhaXQfzk9UI3LimtLr83-32" parent="1" target="BhaXQfzk9UI3LimtLr83-3">
          <mxGeometry relative="1" as="geometry">
            <mxPoint x="215" y="250" as="targetPoint" />
          </mxGeometry>
        </mxCell>
        <mxCell id="BhaXQfzk9UI3LimtLr83-34" value="&amp;lt;&amp;lt;extend&amp;gt;&amp;gt;" style="edgeLabel;html=1;align=center;verticalAlign=middle;resizable=0;points=[];" vertex="1" connectable="0" parent="BhaXQfzk9UI3LimtLr83-33">
          <mxGeometry x="-0.2218" y="-4" relative="1" as="geometry">
            <mxPoint as="offset" />
          </mxGeometry>
        </mxCell>
        <mxCell id="BhaXQfzk9UI3LimtLr83-35" value="Tìm kiếm theo&lt;br&gt;danh mục" style="ellipse;whiteSpace=wrap;html=1;" vertex="1" parent="1">
          <mxGeometry x="60" y="640" width="120" height="80" as="geometry" />
        </mxCell>
        <mxCell id="BhaXQfzk9UI3LimtLr83-36" style="rounded=0;orthogonalLoop=1;jettySize=auto;html=1;dashed=1;" edge="1" parent="1" source="BhaXQfzk9UI3LimtLr83-35" target="BhaXQfzk9UI3LimtLr83-13">
          <mxGeometry relative="1" as="geometry">
            <mxPoint x="175.044079538726" y="672.2980408676344" as="sourcePoint" />
            <mxPoint x="477.42640687119285" y="520.0042712474617" as="targetPoint" />
          </mxGeometry>
        </mxCell>
        <mxCell id="BhaXQfzk9UI3LimtLr83-37" value="&amp;lt;&amp;lt;extend&amp;gt;&amp;gt;" style="edgeLabel;html=1;align=center;verticalAlign=middle;resizable=0;points=[];" vertex="1" connectable="0" parent="BhaXQfzk9UI3LimtLr83-36">
          <mxGeometry x="0.2708" y="-2" relative="1" as="geometry">
            <mxPoint as="offset" />
          </mxGeometry>
        </mxCell>
        <mxCell id="BhaXQfzk9UI3LimtLr83-38" value="Thông báo" style="ellipse;whiteSpace=wrap;html=1;" vertex="1" parent="1">
          <mxGeometry x="490" y="370" width="120" height="80" as="geometry" />
        </mxCell>
        <mxCell id="BhaXQfzk9UI3LimtLr83-39" value="Xem thông báo" style="ellipse;whiteSpace=wrap;html=1;" vertex="1" parent="1">
          <mxGeometry x="635" y="470" width="120" height="80" as="geometry" />
        </mxCell>
        <mxCell id="BhaXQfzk9UI3LimtLr83-41" style="rounded=0;orthogonalLoop=1;jettySize=auto;html=1;dashed=1;" edge="1" parent="1" source="BhaXQfzk9UI3LimtLr83-39" target="BhaXQfzk9UI3LimtLr83-38">
          <mxGeometry relative="1" as="geometry">
            <mxPoint x="652.9986914354927" y="640.0460095043168" as="sourcePoint" />
            <mxPoint x="446.88733679660595" y="560.0854206954605" as="targetPoint" />
          </mxGeometry>
        </mxCell>
        <mxCell id="BhaXQfzk9UI3LimtLr83-42" value="&amp;lt;&amp;lt;extend&amp;gt;&amp;gt;" style="edgeLabel;html=1;align=center;verticalAlign=middle;resizable=0;points=[];" vertex="1" connectable="0" parent="BhaXQfzk9UI3LimtLr83-41">
          <mxGeometry x="0.2708" y="-2" relative="1" as="geometry">
            <mxPoint as="offset" />
          </mxGeometry>
        </mxCell>
        <mxCell id="BhaXQfzk9UI3LimtLr83-43" value="Xem thông tin&lt;br&gt;người đăng" style="ellipse;whiteSpace=wrap;html=1;" vertex="1" parent="1">
          <mxGeometry x="410" y="650" width="120" height="80" as="geometry" />
        </mxCell>
        <mxCell id="BhaXQfzk9UI3LimtLr83-44" style="rounded=0;orthogonalLoop=1;jettySize=auto;html=1;dashed=1;" edge="1" parent="1" source="BhaXQfzk9UI3LimtLr83-43" target="BhaXQfzk9UI3LimtLr83-13">
          <mxGeometry relative="1" as="geometry">
            <mxPoint x="325.23166369858995" y="685.2702743150217" as="sourcePoint" />
            <mxPoint x="264.76833630141005" y="614.7297256849783" as="targetPoint" />
          </mxGeometry>
        </mxCell>
        <mxCell id="BhaXQfzk9UI3LimtLr83-45" value="&amp;lt;&amp;lt;extend&amp;gt;&amp;gt;" style="edgeLabel;html=1;align=center;verticalAlign=middle;resizable=0;points=[];" vertex="1" connectable="0" parent="BhaXQfzk9UI3LimtLr83-44">
          <mxGeometry x="0.2708" y="-2" relative="1" as="geometry">
            <mxPoint as="offset" />
          </mxGeometry>
        </mxCell>
        <mxCell id="BhaXQfzk9UI3LimtLr83-46" value="Xem bài đấu giá&lt;br&gt;đã tham gia" style="ellipse;whiteSpace=wrap;html=1;" vertex="1" parent="1">
          <mxGeometry x="95" y="380" width="120" height="80" as="geometry" />
        </mxCell>
        <mxCell id="BhaXQfzk9UI3LimtLr83-52" style="rounded=0;orthogonalLoop=1;jettySize=auto;html=1;dashed=1;" edge="1" parent="1" source="BhaXQfzk9UI3LimtLr83-28" target="BhaXQfzk9UI3LimtLr83-38">
          <mxGeometry relative="1" as="geometry">
            <mxPoint x="662.3203402268655" y="868.5870935469361" as="sourcePoint" />
            <mxPoint x="387.68212996688845" y="790.0002781275518" as="targetPoint" />
          </mxGeometry>
        </mxCell>
        <mxCell id="BhaXQfzk9UI3LimtLr83-53" value="&amp;lt;&amp;lt;include&amp;gt;&amp;gt;" style="edgeLabel;html=1;align=center;verticalAlign=middle;resizable=0;points=[];" vertex="1" connectable="0" parent="BhaXQfzk9UI3LimtLr83-52">
          <mxGeometry x="-0.2218" y="-4" relative="1" as="geometry">
            <mxPoint as="offset" />
          </mxGeometry>
        </mxCell>
        <mxCell id="BhaXQfzk9UI3LimtLr83-54" style="rounded=0;orthogonalLoop=1;jettySize=auto;html=1;dashed=1;" edge="1" parent="1" source="BhaXQfzk9UI3LimtLr83-20" target="BhaXQfzk9UI3LimtLr83-38">
          <mxGeometry relative="1" as="geometry">
            <mxPoint x="661.8045433857371" y="631.8836555408111" as="sourcePoint" />
            <mxPoint x="578.3154354570804" y="458.0907969288562" as="targetPoint" />
          </mxGeometry>
        </mxCell>
        <mxCell id="BhaXQfzk9UI3LimtLr83-55" value="&amp;lt;&amp;lt;include&amp;gt;&amp;gt;" style="edgeLabel;html=1;align=center;verticalAlign=middle;resizable=0;points=[];" vertex="1" connectable="0" parent="BhaXQfzk9UI3LimtLr83-54">
          <mxGeometry x="-0.2218" y="-4" relative="1" as="geometry">
            <mxPoint as="offset" />
          </mxGeometry>
        </mxCell>
        <mxCell id="BhaXQfzk9UI3LimtLr83-56" style="rounded=0;orthogonalLoop=1;jettySize=auto;html=1;dashed=1;" edge="1" parent="1" source="BhaXQfzk9UI3LimtLr83-21" target="BhaXQfzk9UI3LimtLr83-38">
          <mxGeometry relative="1" as="geometry">
            <mxPoint x="592.4166420673912" y="319.11043681756837" as="sourcePoint" />
            <mxPoint x="572.3973794776198" y="380.8631745902592" as="targetPoint" />
          </mxGeometry>
        </mxCell>
        <mxCell id="BhaXQfzk9UI3LimtLr83-57" value="&amp;lt;&amp;lt;include&amp;gt;&amp;gt;" style="edgeLabel;html=1;align=center;verticalAlign=middle;resizable=0;points=[];" vertex="1" connectable="0" parent="BhaXQfzk9UI3LimtLr83-56">
          <mxGeometry x="-0.2218" y="-4" relative="1" as="geometry">
            <mxPoint as="offset" />
          </mxGeometry>
        </mxCell>
        <mxCell id="BhaXQfzk9UI3LimtLr83-58" style="rounded=0;orthogonalLoop=1;jettySize=auto;html=1;dashed=1;" edge="1" parent="1" source="BhaXQfzk9UI3LimtLr83-29" target="BhaXQfzk9UI3LimtLr83-38">
          <mxGeometry relative="1" as="geometry">
            <mxPoint x="472.3101383610682" y="374.60127194775555" as="sourcePoint" />
            <mxPoint x="512.5565775431647" y="395.51307228034307" as="targetPoint" />
          </mxGeometry>
        </mxCell>
        <mxCell id="BhaXQfzk9UI3LimtLr83-59" value="&amp;lt;&amp;lt;include&amp;gt;&amp;gt;" style="edgeLabel;html=1;align=center;verticalAlign=middle;resizable=0;points=[];" vertex="1" connectable="0" parent="BhaXQfzk9UI3LimtLr83-58">
          <mxGeometry x="-0.2218" y="-4" relative="1" as="geometry">
            <mxPoint as="offset" />
          </mxGeometry>
        </mxCell>
        <mxCell id="BhaXQfzk9UI3LimtLr83-60" style="rounded=0;orthogonalLoop=1;jettySize=auto;html=1;dashed=1;" edge="1" parent="1" source="BhaXQfzk9UI3LimtLr83-16" target="BhaXQfzk9UI3LimtLr83-38">
          <mxGeometry relative="1" as="geometry">
            <mxPoint x="469.85657089641336" y="473.4344580128038" as="sourcePoint" />
            <mxPoint x="515.1873574556605" y="446.59847170373723" as="targetPoint" />
          </mxGeometry>
        </mxCell>
        <mxCell id="BhaXQfzk9UI3LimtLr83-61" value="&amp;lt;&amp;lt;include&amp;gt;&amp;gt;" style="edgeLabel;html=1;align=center;verticalAlign=middle;resizable=0;points=[];" vertex="1" connectable="0" parent="BhaXQfzk9UI3LimtLr83-60">
          <mxGeometry x="-0.2218" y="-4" relative="1" as="geometry">
            <mxPoint as="offset" />
          </mxGeometry>
        </mxCell>
        <mxCell id="BhaXQfzk9UI3LimtLr83-63" style="rounded=0;orthogonalLoop=1;jettySize=auto;html=1;dashed=1;" edge="1" parent="1" source="BhaXQfzk9UI3LimtLr83-13" target="BhaXQfzk9UI3LimtLr83-46">
          <mxGeometry relative="1" as="geometry">
            <mxPoint x="105" y="520" as="sourcePoint" />
            <mxPoint x="303.34045531386346" y="541.6843014886133" as="targetPoint" />
          </mxGeometry>
        </mxCell>
        <mxCell id="BhaXQfzk9UI3LimtLr83-64" value="&amp;lt;&amp;lt;extend&amp;gt;&amp;gt;" style="edgeLabel;html=1;align=center;verticalAlign=middle;resizable=0;points=[];" vertex="1" connectable="0" parent="BhaXQfzk9UI3LimtLr83-63">
          <mxGeometry x="-0.2218" y="-4" relative="1" as="geometry">
            <mxPoint as="offset" />
          </mxGeometry>
        </mxCell>
        <mxCell id="BhaXQfzk9UI3LimtLr83-66" style="rounded=0;orthogonalLoop=1;jettySize=auto;html=1;dashed=1;" edge="1" parent="1" source="BhaXQfzk9UI3LimtLr83-3" target="BhaXQfzk9UI3LimtLr83-46">
          <mxGeometry relative="1" as="geometry">
            <mxPoint x="225.86357803030228" y="523.3792218390793" as="sourcePoint" />
            <mxPoint x="188.8690053336809" y="466.69859570053427" as="targetPoint" />
          </mxGeometry>
        </mxCell>
        <mxCell id="BhaXQfzk9UI3LimtLr83-67" value="&amp;lt;&amp;lt;extend&amp;gt;&amp;gt;" style="edgeLabel;html=1;align=center;verticalAlign=middle;resizable=0;points=[];" vertex="1" connectable="0" parent="BhaXQfzk9UI3LimtLr83-66">
          <mxGeometry x="-0.2218" y="-4" relative="1" as="geometry">
            <mxPoint as="offset" />
          </mxGeometry>
        </mxCell>
        <mxCell id="BhaXQfzk9UI3LimtLr83-68" value="Thêm, sửa và xóa&lt;br&gt;bai đấu giá" style="ellipse;whiteSpace=wrap;html=1;" vertex="1" parent="1">
          <mxGeometry x="60" y="480" width="120" height="80" as="geometry" />
        </mxCell>
        <mxCell id="BhaXQfzk9UI3LimtLr83-69" style="rounded=0;orthogonalLoop=1;jettySize=auto;html=1;dashed=1;" edge="1" parent="1" source="BhaXQfzk9UI3LimtLr83-68" target="BhaXQfzk9UI3LimtLr83-13">
          <mxGeometry relative="1" as="geometry">
            <mxPoint x="241.57079250568813" y="681.5557613868036" as="sourcePoint" />
            <mxPoint x="268.51673232616463" y="618.4609579056155" as="targetPoint" />
          </mxGeometry>
        </mxCell>
        <mxCell id="BhaXQfzk9UI3LimtLr83-70" value="&amp;lt;&amp;lt;extend&amp;gt;&amp;gt;" style="edgeLabel;html=1;align=center;verticalAlign=middle;resizable=0;points=[];" vertex="1" connectable="0" parent="BhaXQfzk9UI3LimtLr83-69">
          <mxGeometry x="0.2708" y="-2" relative="1" as="geometry">
            <mxPoint as="offset" />
          </mxGeometry>
        </mxCell>
      </root>
    </mxGraphModel>
  </diagram>
</mxfile>
